<svg width="24" height="24" viewBox="0 0 24 24" fill="none" xmlns="http://www.w3.org/2000/svg">
<g clip-path="url(#clip0_95_95)">
<path fill-rule="evenodd" clip-rule="evenodd" d="M23.9353 18.4453L17.9353 4.94531C17.8149 4.67451 17.5464 4.5 17.25 4.5H6.75C6.45632 4.50048 6.18995 4.67233 6.06844 4.93969C6.06817 4.94155 6.06817 4.94345 6.06844 4.94531V4.95656L0.0646875 18.4453C-0.0384574 18.6773 -0.0172242 18.9457 0.121112 19.1586C0.259449 19.3715 0.496105 19.5 0.75 19.5H23.25C23.5039 19.5 23.7406 19.3715 23.8789 19.1586C24.0172 18.9457 24.0385 18.6773 23.9353 18.4453ZM6 18H1.90406L6 8.78438V18ZM7.5 18V8.78438L11.5959 18H7.5ZM13.2375 18L7.90406 6H16.7625L22.0959 18H13.2375Z" fill="#121714"/>
</g>
<defs>
<clipPath id="clip0_95_95">
<rect width="24" height="24" fill="white"/>
</clipPath>
</defs>
</svg>
