<svg width="20" height="20" viewBox="0 0 20 20" fill="none" xmlns="http://www.w3.org/2000/svg">
<g clip-path="url(#clip0_222_1180)">
<path fill-rule="evenodd" clip-rule="evenodd" d="M10.9375 10C10.9375 10.5178 10.5178 10.9375 10 10.9375C9.48223 10.9375 9.0625 10.5178 9.0625 10C9.0625 9.48223 9.48223 9.0625 10 9.0625C10.5178 9.0625 10.9375 9.48223 10.9375 10ZM6.5625 9.0625C6.04473 9.0625 5.625 9.48223 5.625 10C5.625 10.5178 6.04473 10.9375 6.5625 10.9375C7.08027 10.9375 7.5 10.5178 7.5 10C7.5 9.48223 7.08027 9.0625 6.5625 9.0625ZM13.4375 9.0625C12.9197 9.0625 12.5 9.48223 12.5 10C12.5 10.5178 12.9197 10.9375 13.4375 10.9375C13.9553 10.9375 14.375 10.5178 14.375 10C14.375 9.48223 13.9553 9.0625 13.4375 9.0625ZM18.125 10C18.1256 12.8534 16.6294 15.4979 14.1834 16.9671C11.7373 18.4362 8.69982 18.5145 6.18125 17.1734L3.52109 18.0602C3.07189 18.21 2.57659 18.0931 2.24176 17.7582C1.90692 17.4234 1.79004 16.9281 1.93984 16.4789L2.82656 13.8188C1.23895 10.8339 1.66562 7.17776 3.89789 4.63865C6.13016 2.09953 9.70147 1.20807 12.8651 2.40027C16.0288 3.59247 18.1236 6.61915 18.125 10ZM16.875 10C16.8742 7.10961 15.0656 4.5284 12.3492 3.54076C9.63276 2.55312 6.58869 3.36999 4.73167 5.5849C2.87466 7.79981 2.60131 10.9397 4.04766 13.4422C4.13725 13.5972 4.15603 13.7833 4.09922 13.9531L3.125 16.875L6.04688 15.9008C6.11052 15.8791 6.17729 15.868 6.24453 15.868C6.3543 15.8682 6.46208 15.8973 6.55703 15.9523C8.68426 17.1831 11.3067 17.1848 13.4354 15.9567C15.5642 14.7286 16.8756 12.4576 16.875 10Z" fill="#121714"/>
</g>
<defs>
<clipPath id="clip0_222_1180">
<rect width="20" height="20" fill="white"/>
</clipPath>
</defs>
</svg>
