<svg width="24" height="24" viewBox="0 0 24 24" fill="none" xmlns="http://www.w3.org/2000/svg">
<g clip-path="url(#clip0_95_173)">
<path fill-rule="evenodd" clip-rule="evenodd" d="M17.2397 14.3756C16.8414 16.6005 15.0996 18.3419 12.8747 18.7397C12.8334 18.7463 12.7918 18.7497 12.75 18.75C12.3599 18.7499 12.0351 18.4508 12.0028 18.0621C11.9705 17.6734 12.2415 17.3248 12.6263 17.2603C14.1797 16.9988 15.4978 15.6806 15.7612 14.1244C15.8306 13.7159 16.218 13.4409 16.6266 13.5103C17.0351 13.5797 17.31 13.9671 17.2406 14.3756H17.2397ZM20.25 13.5C20.25 18.0563 16.5563 21.75 12 21.75C7.44365 21.75 3.75 18.0563 3.75 13.5C3.75 10.8825 4.78125 8.20594 6.81187 5.54531C6.94189 5.37491 7.1386 5.26827 7.35235 5.25232C7.5661 5.23638 7.77645 5.31265 7.93031 5.46187L10.1916 7.65656L12.2541 1.99312C12.3377 1.7639 12.5276 1.58968 12.7632 1.52608C12.9987 1.46248 13.2505 1.51745 13.4381 1.67344C15.4884 3.375 20.25 7.92656 20.25 13.5ZM18.75 13.5C18.75 9.17906 15.3947 5.445 13.2928 3.53156L11.205 9.25688C11.1179 9.4958 10.9157 9.67433 10.6679 9.73114C10.42 9.78795 10.1602 9.71529 9.97781 9.53813L7.50562 7.14C6.00844 9.30094 5.25 11.4375 5.25 13.5C5.25 17.2279 8.27208 20.25 12 20.25C15.7279 20.25 18.75 17.2279 18.75 13.5Z" fill="white"/>
</g>
<defs>
<clipPath id="clip0_95_173">
<rect width="24" height="24" fill="white"/>
</clipPath>
</defs>
</svg>
