<svg width="24" height="24" viewBox="0 0 24 24" fill="none" xmlns="http://www.w3.org/2000/svg">
<g clip-path="url(#clip0_95_87)">
<path fill-rule="evenodd" clip-rule="evenodd" d="M15.7556 7.11938C15.7556 7.7407 15.2519 8.24438 14.6306 8.24438C14.0093 8.24438 13.5056 7.7407 13.5056 7.11938C13.5056 6.49805 14.0093 5.99438 14.6306 5.99438C15.2519 5.99438 15.7556 6.49805 15.7556 7.11938ZM19.4934 14.7131C17.5472 17.1853 14.445 18.5325 10.2675 18.7228L8.205 23.5434C8.08694 23.8211 7.81394 24.001 7.51219 24H7.46438C7.14768 23.9802 6.87775 23.7632 6.79031 23.4581L5.40188 18.5972L0.54375 17.2059C0.237841 17.12 0.0192739 16.8507 -0.00179237 16.5336C-0.0228586 16.2166 0.158148 15.9206 0.45 15.795L5.27156 13.7325C5.45906 9.55406 6.81 6.45188 9.28312 4.50656C13.3341 1.31906 19.1184 2.36625 20.2369 2.60812C20.8124 2.73247 21.2619 3.182 21.3862 3.7575C21.6337 4.875 22.6819 10.665 19.4934 14.7188V14.7131ZM15.15 16.1822C13.3801 15.508 12.1592 13.8717 12.0169 11.9831C10.1287 11.8411 8.49269 10.6205 7.81875 8.85094C7.1625 10.3378 6.81 12.1425 6.75938 14.2528C6.75223 14.5463 6.57455 14.8086 6.30469 14.9241L2.985 16.3444L6.21562 17.2697C6.46452 17.3409 6.65908 17.5355 6.73031 17.7844L7.65281 21.015L9.07594 17.6953C9.19185 17.4245 9.45552 17.2467 9.75 17.2406C11.8575 17.1909 13.6622 16.8366 15.15 16.1822ZM19.9247 4.07531C18.9216 3.85781 13.7372 2.91375 10.215 5.68594C9.77105 6.03582 9.36761 6.43423 9.01219 6.87375C8.93935 7.86571 9.30777 8.8393 10.0191 9.53452C10.7304 10.2297 11.7121 10.5758 12.7022 10.4803C12.9248 10.4592 13.1452 10.5385 13.3034 10.6966C13.4615 10.8548 13.5408 11.0752 13.5197 11.2978C13.4241 12.2882 13.7704 13.2703 14.4661 13.9817C15.1617 14.6931 16.1358 15.0612 17.1281 14.9878C17.567 14.633 17.9648 14.2302 18.3141 13.7869C21.0863 10.2647 20.1422 5.07938 19.9247 4.07531Z" fill="#121714"/>
</g>
<defs>
<clipPath id="clip0_95_87">
<rect width="24" height="24" fill="white"/>
</clipPath>
</defs>
</svg>
