<svg width="20" height="20" viewBox="0 0 20 20" fill="none" xmlns="http://www.w3.org/2000/svg">
<g clip-path="url(#clip0_222_1199)">
<path fill-rule="evenodd" clip-rule="evenodd" d="M17.7586 5.73203L14.268 2.24062C14.0335 2.00614 13.7156 1.87441 13.384 1.87441C13.0524 1.87441 12.7344 2.00614 12.5 2.24062L2.86641 11.875C2.63092 12.1086 2.49894 12.4269 2.5 12.7586V16.25C2.5 16.9404 3.05964 17.5 3.75 17.5H7.24141C7.57311 17.5011 7.89139 17.3691 8.125 17.1336L17.7586 7.5C17.9931 7.26557 18.1248 6.94759 18.1248 6.61602C18.1248 6.28445 17.9931 5.96646 17.7586 5.73203ZM7.24141 16.25H3.75V12.7586L10.625 5.88359L14.1164 9.375L7.24141 16.25ZM15 8.49063L11.5086 5L13.3836 3.125L16.875 6.61562L15 8.49063Z" fill="#121714"/>
</g>
<defs>
<clipPath id="clip0_222_1199">
<rect width="20" height="20" fill="white"/>
</clipPath>
</defs>
</svg>
