<svg width="21" height="20" viewBox="0 0 21 20" fill="none" xmlns="http://www.w3.org/2000/svg">
<g clip-path="url(#clip0_222_1172)">
<path fill-rule="evenodd" clip-rule="evenodd" d="M18.4164 7.67266L4.67266 2.57812L4.66016 2.57422C4.20881 2.41882 3.70837 2.53403 3.37042 2.87115C3.03247 3.20827 2.91602 3.70843 3.07031 4.16016C3.07126 4.16442 3.07257 4.16861 3.07422 4.17266L8.17266 17.9164C8.3444 18.419 8.8189 18.755 9.35 18.75H9.37344C9.91558 18.7459 10.3913 18.3878 10.5453 17.868L12.3859 11.8867L18.3672 10.0461C18.8827 9.88747 19.2383 9.41611 19.2493 8.87688C19.2603 8.33766 18.9242 7.85218 18.4156 7.67266H18.4164ZM18 8.85156L12.0188 10.6922C11.6234 10.814 11.314 11.1234 11.1922 11.5188L9.35156 17.5L9.34688 17.4867L4.25 3.75L17.9859 8.84531L17.9984 8.85L18 8.85156Z" fill="#121714"/>
</g>
<defs>
<clipPath id="clip0_222_1172">
<rect width="20" height="20" fill="white" transform="translate(0.5)"/>
</clipPath>
</defs>
</svg>
