<svg width="48" height="48" viewBox="0 0 48 48" fill="none" xmlns="http://www.w3.org/2000/svg">
<g clip-path="url(#clip0_95_6)">
<path fill-rule="evenodd" clip-rule="evenodd" d="M45.6488 31.875C44.2209 29.4066 42.0206 27.6366 39.4528 26.7975C42.0635 25.2433 43.3141 22.1364 42.5082 19.2069C41.7022 16.2774 39.0383 14.2474 36 14.2474C32.9617 14.2474 30.2978 16.2774 29.4918 19.2069C28.6858 22.1364 29.9365 25.2433 32.5472 26.7975C29.9794 27.6356 27.7791 29.4056 26.3512 31.875C26.2087 32.1074 26.2035 32.3989 26.3377 32.6363C26.4719 32.8736 26.7244 33.0194 26.997 33.0171C27.2697 33.0147 27.5196 32.8646 27.6497 32.625C29.4159 29.5725 32.5378 27.75 36 27.75C39.4622 27.75 42.5841 29.5725 44.3503 32.625C44.4804 32.8646 44.7303 33.0147 45.003 33.0171C45.2756 33.0194 45.5281 32.8736 45.6623 32.6363C45.7965 32.3989 45.7913 32.1074 45.6488 31.875ZM30.75 21C30.75 18.1005 33.1005 15.75 36 15.75C38.8995 15.75 41.25 18.1005 41.25 21C41.25 23.8995 38.8995 26.25 36 26.25C33.1018 26.2469 30.7531 23.8982 30.75 21Z" fill="#121714"/>
</g>
<defs>
<clipPath id="clip0_95_6">
<rect width="24" height="24" fill="white" transform="translate(24 12)"/>
</clipPath>
</defs>
</svg>
