<svg width="24" height="24" viewBox="0 0 24 24" fill="none" xmlns="http://www.w3.org/2000/svg">
<g clip-path="url(#clip0_95_73)">
<path fill-rule="evenodd" clip-rule="evenodd" d="M22.2928 4.99031C21.1074 3.72068 19.4483 2.99988 17.7113 2.99988C15.9742 2.99988 14.3151 3.72068 13.1297 4.99031C12.6781 5.46415 12.2975 6.00099 12 6.58406C11.7039 6.00128 11.325 5.46446 10.875 4.99031C9.68957 3.72068 8.03045 2.99988 6.29344 2.99988C4.55643 2.99988 2.8973 3.72068 1.71187 4.99031C1.54309 5.16764 1.47147 5.41618 1.52002 5.65613C1.56857 5.89608 1.73118 6.09724 1.95563 6.195L7.21875 8.48906C5.50477 8.94732 4.04274 10.0671 3.15375 11.6025C2.25273 13.14 2.0094 14.9758 2.47875 16.695C2.54396 16.9358 2.72463 17.1284 2.96076 17.2089C3.19689 17.2893 3.45758 17.2471 3.65625 17.0963L11.25 11.3138V21C11.25 21.4142 11.5858 21.75 12 21.75C12.4142 21.75 12.75 21.4142 12.75 21V11.3138L20.3438 17.0963C20.5425 17.2475 20.8034 17.29 21.0398 17.2095C21.2763 17.129 21.4571 16.9361 21.5222 16.695C21.9915 14.9758 21.7482 13.14 20.8472 11.6025C19.958 10.0669 18.4956 8.9471 16.7812 8.48906L22.0519 6.195C22.2763 6.09724 22.4389 5.89608 22.4875 5.65613C22.536 5.41618 22.4644 5.16764 22.2956 4.99031H22.2928ZM6.28875 4.5C7.61442 4.50298 8.87966 5.05482 9.78375 6.02437C10.4521 6.7277 10.9145 7.60099 11.1206 8.54906L3.65625 5.29969C4.43524 4.77841 5.35144 4.50009 6.28875 4.5ZM3.75 15.1406C3.71419 14.1648 3.9571 13.199 4.45031 12.3562C5.14664 11.1545 6.29416 10.2807 7.63781 9.92906C8.08521 9.8097 8.54633 9.7495 9.00937 9.75C9.52492 9.74995 10.0376 9.82609 10.5309 9.97594L3.75 15.1406ZM19.5469 12.3562C20.0411 13.1987 20.285 14.1645 20.25 15.1406L13.4719 9.975C15.8046 9.27062 18.3163 10.2547 19.5497 12.3562H19.5469ZM12.8794 8.54906C13.0855 7.60099 13.5479 6.7277 14.2163 6.02437C15.1203 5.05482 16.3856 4.50298 17.7113 4.5C18.6486 4.50009 19.5648 4.77841 20.3438 5.29969L12.8794 8.54906Z" fill="#121714"/>
</g>
<defs>
<clipPath id="clip0_95_73">
<rect width="24" height="24" fill="white"/>
</clipPath>
</defs>
</svg>
