<svg width="20" height="17" viewBox="0 0 20 17" fill="none" xmlns="http://www.w3.org/2000/svg">
<path fill-rule="evenodd" clip-rule="evenodd" d="M19.5306 6.28063L15.0306 10.7806C14.7376 11.0737 14.2624 11.0737 13.9694 10.7806C13.6763 10.4876 13.6763 10.0124 13.9694 9.71937L17.1897 6.5H13.4688C9.70591 6.49896 6.41915 9.04415 5.47844 12.6875C5.37488 13.0888 4.96564 13.3301 4.56437 13.2266C4.16311 13.123 3.92176 12.7138 4.02531 12.3125C5.13533 8.00544 9.02096 4.99662 13.4688 5H17.1916L13.9694 1.78062C13.6763 1.48757 13.6763 1.01243 13.9694 0.719375C14.2624 0.426319 14.7376 0.426319 15.0306 0.719375L19.5306 5.21937C19.6715 5.36005 19.7506 5.55094 19.7506 5.75C19.7506 5.94906 19.6715 6.13995 19.5306 6.28063ZM16 15.5H1.75V4.25C1.75 3.83579 1.41421 3.5 1 3.5C0.585786 3.5 0.25 3.83579 0.25 4.25V15.5C0.25 16.3284 0.921573 17 1.75 17H16C16.4142 17 16.75 16.6642 16.75 16.25C16.75 15.8358 16.4142 15.5 16 15.5Z" fill="#121714"/>
</svg>
